<?xml version="1.0" encoding="UTF-8"?>
<svg width="400px" height="400px" viewBox="0 0 400 400" version="1.1" xmlns="http://www.w3.org/2000/svg" xmlns:xlink="http://www.w3.org/1999/xlink">
    <!-- Generator: Sketch 48.1 (47250) - http://www.bohemiancoding.com/sketch -->
    <title>illo-large-glasses</title>
    <desc>Created with Sketch.</desc>
    <defs>
        <polygon id="path-1" points="0.000114836795 0.263310105 49.0583938 0.263310105 49.0583938 54.126554 0.000114836795 54.126554"></polygon>
    </defs>
    <g id="Page-1" stroke="none" stroke-width="1" fill="none" fill-rule="evenodd">
        <g id="illo-large-glasses">
            <g id="Group" transform="translate(7.000000, 34.000000)">
                <g id="Page-1" transform="translate(0.000000, 4.000000)">
                    <g id="Group-3" transform="translate(0.000000, 0.886516)">
                        <mask id="mask-2" fill="white">
                            <use xlink:href="#path-1"></use>
                        </mask>
                        <g id="Clip-2"></g>
                        <path d="M49.0583938,20.6723728 C42.4506846,20.7643589 50.1941297,13.2238014 46.7846252,5.72003833 C45.6557795,3.23641463 43.9516015,1.66460279 41.9304739,0.262965157 L0.000114836795,54.126554 C0.000114836795,54.126554 22.2635243,54.080561 28.8712335,53.9885749 C35.4789427,53.895439 44.1077795,50.6736272 47.2726816,40.7034878 C50.4375837,30.7333484 42.4506846,20.7643589 49.0583938,20.6723728" id="Fill-1" fill="#85A4E8" mask="url(#mask-2)"></path>
                    </g>
                    <path d="M214.172116,160.392188 L214.172116,128.516718 L209.578644,128.516718 L209.578644,160.305951 C208.430276,160.294453 195.812009,165.311143 195.812009,165.311143 L240.873968,165.311143 C239.339748,163.011491 230.249267,160.892362 214.172116,160.392188" id="Fill-4" fill="#C7F3E1"></path>
                    <path d="M155.60535,242.08593 L155.60535,209.005443 L151.011879,209.005443 L151.011879,241.999693 C149.863511,241.988195 137.205051,246.949693 137.205051,246.949693 L182.267009,246.949693 C180.73279,244.650042 170.534134,242.586105 155.60535,242.08593" id="Fill-6" fill="#C7F3E1"></path>
                    <path d="M332.454015,322.629962 L332.454015,290.642958 L329.008911,290.642958 L329.008911,322.543725 C327.860543,322.532226 315.327255,328.587209 315.327255,328.587209 L360.388066,328.587209 C358.853846,325.137732 349.679534,323.130136 332.454015,322.629962" id="Fill-8" fill="#C7F3E1"></path>
                    <path d="M162.986256,91.7227526 C162.250152,94.0224042 162.067561,96.0587456 162.067561,98.5584669 C162.067561,105.763275 165.33352,112.500105 170.790564,117.755958 L186.501386,91.7227526 L162.986256,91.7227526 Z" id="Fill-10" fill="#49D89D"></path>
                    <path d="M243.371668,91.7227526 L199.903644,91.7227526 L180.209134,124.261672 C186.801914,127.619164 194.74862,129.453136 203.287885,129.453136 C225.993416,129.453136 244.453431,115.843798 244.453431,98.6642509 C244.453431,96.1645296 244.107772,94.0224042 243.371668,91.7227526" id="Fill-12" fill="#49D89D"></path>
                    <path d="M105.52778,173.360383 C104.791676,175.660035 104.609086,177.8677 104.609086,180.368571 C104.609086,192.883275 114.441412,203.658293 128.554854,208.569199 L149.726166,173.360383 L105.52778,173.360383 Z" id="Fill-14" fill="#92E8C4"></path>
                    <path d="M185.913307,173.360383 L163.12739,173.360383 L140.40693,211.112613 C142.183455,211.288537 143.990987,211.349477 145.829524,211.349477 C168.535055,211.349477 186.99507,197.610209 186.99507,180.430662 C186.99507,177.930941 186.649411,175.660035 185.913307,173.360383" id="Fill-16" fill="#92E8C4"></path>
                    <path d="M268.96477,211.280488 L265.8481,216.468502 L265.8481,242.000383 C263.551364,241.988885 251.546325,246.949233 251.546325,246.949233 L296.608284,246.949233 C295.072916,244.649582 285.370355,242.585645 269.293204,242.08662 L269.293204,211.274739 C269.184109,211.278188 269.073865,211.278188 268.96477,211.280488" id="Fill-18" fill="#C7F3E1"></path>
                    <path d="M266.997042,211.274279 C288.803401,210.514244 306.221846,197.098077 306.221846,180.411805 C306.221846,177.910934 305.876187,175.659575 305.140083,173.359923 L289.537208,173.359923 L266.997042,210.732711 L266.997042,211.274279 Z" id="Fill-20" fill="#92E8C4"></path>
                    <path d="M224.754097,173.360383 C224.017993,175.660035 223.835403,177.8677 223.835403,180.368571 C223.835403,194.63331 236.608699,206.627143 253.939869,210.27439 L276.135524,173.360383 L224.754097,173.360383 Z" id="Fill-22" fill="#92E8C4"></path>
                    <path d="M266.668034,211.280488 C266.777129,211.278188 266.887373,211.278188 266.996468,211.274739 L266.996468,210.733171 L266.668034,211.280488 Z" id="Fill-24" fill="#92E8C4"></path>
                    <path d="M207.281908,311.774571 L207.281908,322.54384 C206.068083,322.538091 202.213012,324.226035 198.847146,325.818544 L197.184309,328.587324 L238.288991,328.587324 C236.754772,325.137847 226.804164,323.129101 210.727012,322.630077 L210.727012,306.03924 L207.281908,311.774571 Z" id="Fill-26" fill="#C7F3E1"></path>
                    <path d="M164.265882,270.612763 C170.345342,282.067328 185.232784,290.128756 202.561657,290.128756 C204.063722,290.128756 205.540523,290.045969 207.002396,289.928686 L219.253185,269.531927 L164.265882,270.612763 Z" id="Fill-28" fill="#C7F3E1"></path>
                    <path d="M241.571142,269.092348 L232.814836,269.263672 L222.657522,286.17646 C231.463207,282.467122 238.289106,276.41099 241.571142,269.092348" id="Fill-30" fill="#C7F3E1"></path>
                    <path d="M286.076946,270.873199 C289.899863,278.076857 297.070272,283.978913 306.107928,287.553721 L316.485729,270.274139 L286.076946,270.873199 Z" id="Fill-32" fill="#C7F3E1"></path>
                    <path d="M330.04761,270.00807 L317.661313,290.630195 C320.400171,291.040683 323.220563,291.278697 326.117895,291.278697 C345.046444,291.278697 361.154601,282.106537 366.90448,269.283679 L330.04761,270.00807 Z" id="Fill-34" fill="#C7F3E1"></path>
                    <path d="M89.0000092,323.982502 C87.8516412,323.971003 75.4377837,329.73623 75.4377837,329.73623 L120.499742,329.73623 C118.964374,327.436578 108.522264,324.567763 93.593481,324.068739 L93.593481,291.791979 L92.875751,291.791979 L89.0000092,298.244801 L89.0000092,323.982502 Z" id="Fill-36" fill="#C7F3E1"></path>
                    <path d="M46.1879332,270.612763 C51.8034525,281.19231 64.9396335,288.862798 80.5666246,289.97353 L92.7450668,269.697502 L46.1879332,270.612763 Z" id="Fill-38" fill="#C7F3E1"></path>
                    <path d="M123.493193,269.092348 L106.306718,269.430397 L94.4211098,289.218899 C108.062573,286.681233 119.03408,279.034892 123.493193,269.092348" id="Fill-40" fill="#C7F3E1"></path>
                    <path d="M176.863593,30.7819861 L69.2936706,30.7819861 L33.9136024,71.0258885 L43.2199763,71.0258885 C81.248181,71.0258885 105.276632,49.2527875 133.911187,46.385122 C162.545742,43.5186063 177.579027,48.7974564 177.579027,48.7974564 L176.863593,30.7819861 Z" id="Fill-42" fill="#49D89D"></path>
                    <path d="M184.4264,39.8754983 C198.411225,39.8754983 211.360222,59.8376237 211.360222,96.6906899 L229.101359,94.0219443 C229.101359,57.168878 213.024207,32.9650453 184.4264,32.9650453" id="Fill-44" fill="#49D89D"></path>
                    <path d="M172.926299,26.7618502 L102.054771,26.4031045 L102.054771,5.97529965 C102.054771,5.97529965 126.037287,16.3685749 145.365468,16.3685749 C164.693649,16.3685749 172.926299,13.8596551 172.926299,13.8596551 L172.926299,26.7618502 Z" id="Fill-46" fill="#DBEEFB"></path>
                    <path d="M246.556207,67.8519094 C246.556207,70.1354634 244.707335,71.9866829 242.426676,71.9866829 C240.146017,71.9866829 238.295996,70.1354634 238.295996,67.8519094 C238.295996,65.5683554 240.146017,63.7171359 242.426676,63.7171359 C244.707335,63.7171359 246.556207,65.5683554 246.556207,67.8519094" id="Fill-48" fill="#C5D3F4"></path>
                    <path d="M198.255162,73.6050627 C198.255162,75.391892 196.808218,76.8406725 195.023655,76.8406725 C193.237942,76.8406725 191.790999,75.391892 191.790999,73.6050627 C191.790999,71.8182334 193.237942,70.369453 195.023655,70.369453 C196.808218,70.369453 198.255162,71.8182334 198.255162,73.6050627" id="Fill-50" fill="#C5D3F4"></path>
                    <path d="M151.241667,141.44076 C151.241667,143.724314 149.392795,145.575533 147.112136,145.575533 C144.831477,145.575533 142.981456,143.724314 142.981456,141.44076 C142.981456,139.157206 144.831477,137.305986 147.112136,137.305986 C149.392795,137.305986 151.241667,139.157206 151.241667,141.44076" id="Fill-52" fill="#C5D3F4"></path>
                    <path d="M277.492551,157.542345 C277.492551,159.329174 276.045607,160.777955 274.261043,160.777955 C272.475331,160.777955 271.028388,159.329174 271.028388,157.542345 C271.028388,155.755516 272.475331,154.306735 274.261043,154.306735 C276.045607,154.306735 277.492551,155.755516 277.492551,157.542345" id="Fill-54" fill="#C5D3F4"></path>
                    <path d="M367.083855,120.766432 C367.083855,120.766432 355.379688,115.384098 349.650481,123.668592 C343.920125,131.953087 347.678733,137.652774 347.678733,137.652774 L367.083855,120.766432 Z" id="Fill-56" fill="#92E8C4"></path>
                    <path d="M313.083345,72.9451777 C313.083345,72.9451777 291.511253,75.8703345 290.82338,92.8900557 C290.135508,109.908627 300.65341,114.635561 300.65341,114.635561 L313.083345,72.9451777 Z" id="Fill-58" fill="#B5EF8F"></path>
                    <path d="M386.681558,197.241575 C386.681558,197.241575 379.406647,176.698787 362.627842,179.507812 C345.850187,182.316836 343.381196,193.592028 343.381196,193.592028 L386.681558,197.241575 Z" id="Fill-60" fill="#EDE7F9"></path>
                    <path d="M25.8244985,137.525028 C25.8244985,137.525028 30.9002849,156.39022 46.0897478,155.046073 C61.2780623,153.703077 64.2672641,143.798477 64.2672641,143.798477 L25.8244985,137.525028 Z" id="Fill-62" fill="#DBEEFB"></path>
                    <path d="M53.7762338,195.872822 C53.7762338,195.872822 64.297581,206.919199 74.2183318,200.316899 C84.1390825,193.713449 82.4946196,185.799199 82.4946196,185.799199 L53.7762338,195.872822 Z" id="Fill-64" fill="#B5EF8F"></path>
                    <path d="M61.6028208,90.0152613 C61.6028208,90.0152613 56.104435,111.105366 71.5649128,118.211289 C87.0242421,125.318362 95.3889543,117.375366 95.3889543,117.375366 L61.6028208,90.0152613 Z" id="Fill-66" fill="#EDE7F9"></path>
                </g>
                <g id="Page-1" transform="translate(15.000000, 0.000000)" stroke="#271034">
                    <path d="M150.392028,94.5207869 C149.654982,97.3937731 149.472158,99.100111 149.472158,101.596463 C149.472158,118.752852 168.012132,132.574649 190.745562,132.574649 C213.480142,132.574649 231.963774,118.795339 231.963774,101.640097 C231.963774,99.1425972 231.617673,97.3937731 230.880627,94.5207869" id="Stroke-1"></path>
                    <path d="M92.6503117,174.956133 C91.9132661,177.829119 91.730442,179.535457 91.730442,182.031809 C91.730442,199.188199 110.270416,213.009995 133.003846,213.009995 C155.738426,213.009995 174.222058,199.230685 174.222058,182.075443 C174.222058,179.577943 173.875957,177.829119 173.138911,174.956133" id="Stroke-3"></path>
                    <path d="M99.4601072,251.857775 C99.4601072,248.619637 114.728794,245.830475 133.919576,245.830475 C151.929475,245.830475 166.450768,248.601265 168.20427,250.897817 L100.036176,250.897817" id="Stroke-5"></path>
                    <path d="M132.806189,212.431034 L132.806189,246.87931" id="Stroke-7"></path>
                    <path d="M157.691194,171.450447 C157.691194,168.212309 173.330129,165.436926 192.519761,165.436926 C210.52966,165.436926 225.421201,168.222643 227.174702,170.519195 L157.527917,170.519195" id="Stroke-9"></path>
                    <path d="M192.59772,133.2 L192.59772,165.351724" id="Stroke-11"></path>
                    <path d="M32.3422739,255.391594 C31.6052283,258.26458 31.4224042,259.970918 31.4224042,262.46727 C31.4224042,279.62366 49.9623782,293.445456 72.6958081,293.445456 C95.4303879,293.445456 113.91402,279.666146 113.91402,262.510904 C113.91402,260.013404 113.567919,258.26458 112.830873,255.391594" id="Stroke-13"></path>
                    <path d="M38.8354042,332.839241 C38.8354042,329.601103 54.2627691,327.085231 73.452401,327.085231 C91.4623,327.085231 106.142271,327.832759 107.896922,332.425862 L39.0941176,332.425862" id="Stroke-15"></path>
                    <path d="M73.014658,293.958621 L73.014658,326.110345" id="Stroke-17"></path>
                    <path d="M150.392028,255.391594 C149.654982,258.26458 149.472158,259.970918 149.472158,262.46727 C149.472158,279.62366 168.012132,293.445456 190.745562,293.445456 C213.480142,293.445456 231.963774,279.666146 231.963774,262.510904 C231.963774,260.013404 231.617673,258.26458 230.880627,255.391594" id="Stroke-19"></path>
                    <path d="M156.501918,332.839241 C156.501918,329.601103 172.121305,327.085231 191.310937,327.085231 C209.320836,327.085231 224.19283,327.832759 225.946331,332.425862 L156.377735,332.425862" id="Stroke-21"></path>
                    <path d="M190.298046,293.958621 L190.298046,326.110345" id="Stroke-23"></path>
                    <path d="M271.008104,255.391594 C270.271058,258.26458 270.088234,259.970918 270.088234,262.46727 C270.088234,279.62366 288.628208,293.445456 311.361638,293.445456 C334.096218,293.445456 352.57985,279.666146 352.57985,262.510904 C352.57985,260.013404 352.233749,258.26458 351.496703,255.391594" id="Stroke-25"></path>
                    <path d="M277.751323,332.839241 C277.751323,329.601103 293.053356,327.085231 312.244138,327.085231 C330.252887,327.085231 344.808675,327.832759 346.562177,332.425862 L278.260701,332.425862" id="Stroke-27"></path>
                    <path d="M312.180782,293.958621 L312.180782,326.110345" id="Stroke-29"></path>
                    <path d="M208.133744,174.956133 C207.396699,177.829119 207.213875,179.535457 207.213875,182.031809 C207.213875,199.188199 225.753849,213.009995 248.487279,213.009995 C271.221858,213.009995 289.70549,199.230685 289.70549,182.075443 C289.70549,179.577943 289.359389,177.829119 288.622344,174.956133" id="Stroke-31"></path>
                    <path d="M214.69368,251.857775 C214.69368,248.619637 230.0877,245.830475 249.277332,245.830475 C267.287231,245.830475 281.933856,248.601265 283.688507,250.897817 L215.019084,250.897817" id="Stroke-33"></path>
                    <path d="M248.939739,212.431034 L248.939739,246.87931" id="Stroke-35"></path>
                    <path d="M21.8469055,71.7672414 L27.5788436,71.7672414 C38.7886059,71.7672414 51.4241661,68.7461276 67.9967687,62.9059966 C84.5682215,57.0647172 116.737215,47.0356759 132.822287,47.0356759 C148.907358,47.0356759 156.31116,48.3493034 156.31116,48.3493034 L166.151466,45.7691276 L166.151466,26.785831 L155.336098,23.3788966 C155.336098,23.3788966 147.734524,24.8395034 131.650603,24.8395034 C115.565531,24.8395034 83.4942736,14.8965828 66.9228208,9.05645172 C50.3502182,3.21517241 37.8146938,0.574137931 26.6037818,0.574137931 L0,0.574137931" id="Stroke-37"></path>
                    <path d="M5.74918567,57.987931 L15.3997687,57.987931 C22.0159316,57.987931 30.7006515,55.8245793 34.0087329,45.9138103 C37.3168143,36.0018931 29.5968078,25.9338103 36.2129707,25.9338103" id="Stroke-39"></path>
                    <path d="M29.2255254,6.08172828 C31.2285417,7.51018345 32.9130531,9.41172828 34.0088479,11.90808 C37.3169293,19.4488076 29.4600922,26.8701145 36.076255,26.8701145" id="Stroke-41"></path>
                    <path d="M85.6628664,10.3344828 L85.6628664,63.1551724" id="Stroke-43"></path>
                    <path d="M156.952769,19.5206897 L156.952769,53.9689655" id="Stroke-45"></path>
                    <path d="M220.380315,56.8166897 C220.380315,58.6011103 218.93152,60.0479379 217.144673,60.0479379 C215.356676,60.0479379 213.907881,58.6011103 213.907881,56.8166897 C213.907881,55.032269 215.356676,53.5854414 217.144673,53.5854414 C218.93152,53.5854414 220.380315,55.032269 220.380315,56.8166897 Z" id="Stroke-47"></path>
                    <path d="M164.35404,65.7939103 C164.35404,67.0214172 163.358281,68.0158241 162.129106,68.0158241 C160.89993,68.0158241 159.904171,67.0214172 159.904171,65.7939103 C159.904171,64.5664034 160.89993,63.5719966 162.129106,63.5719966 C163.358281,63.5719966 164.35404,64.5664034 164.35404,65.7939103 Z" id="Stroke-49"></path>
                    <path d="M142.19139,161.309793 C142.19139,163.094214 140.742595,164.541041 138.955748,164.541041 C137.167751,164.541041 135.718956,163.094214 135.718956,161.309793 C135.718956,159.525372 137.167751,158.078545 138.955748,158.078545 C140.742595,158.078545 142.19139,159.525372 142.19139,161.309793 Z" id="Stroke-51"></path>
                    <path d="M243.692803,149.618048 C243.692803,150.845555 242.697044,151.839962 241.467868,151.839962 C240.238692,151.839962 239.242933,150.845555 239.242933,149.618048 C239.242933,148.390541 240.238692,147.396134 241.467868,147.396134 C242.697044,147.396134 243.692803,148.390541 243.692803,149.618048 Z" id="Stroke-53"></path>
                    <path d="M121.810066,156.507703 C121.810066,157.73521 120.814307,158.729617 119.585132,158.729617 C118.355956,158.729617 117.360197,157.73521 117.360197,156.507703 C117.360197,155.280197 118.355956,154.28579 119.585132,154.28579 C120.814307,154.28579 121.810066,155.280197 121.810066,156.507703 Z" id="Stroke-55"></path>
                </g>
            </g>
        </g>
    </g>
</svg>