<?xml version="1.0" encoding="UTF-8"?>
<svg width="400px" height="400px" viewBox="0 0 400 400" version="1.1" xmlns="http://www.w3.org/2000/svg" xmlns:xlink="http://www.w3.org/1999/xlink">
    <!-- Generator: Sketch 48.1 (47250) - http://www.bohemiancoding.com/sketch -->
    <title>illo-large-ui</title>
    <desc>Created with Sketch.</desc>
    <defs>
        <polygon id="path-1" points="0.538484367 0.194846398 305.862377 0.194846398 305.862377 100.424681 0.538484367 100.424681"></polygon>
        <polygon id="path-3" points="0 0.654383041 32.5652779 0.654383041 32.5652779 86.4438567 0 86.4438567"></polygon>
        <polygon id="path-5" points="0.68948375 0.339345029 19.2827593 0.339345029 19.2827593 34.900683 0.68948375 34.900683"></polygon>
    </defs>
    <g id="Page-1" stroke="none" stroke-width="1" fill="none" fill-rule="evenodd">
        <g id="illo-large-ui">
            <g id="Page-1" transform="translate(8.000000, 47.000000)">
                <path d="M191.312902,162.502135 C193.995746,157.806591 254.255805,54.186252 254.255805,54.186252 C254.255805,54.186252 295.808753,68.6780006 313.019756,101.428609 C328.929086,131.700854 321.453329,161.110439 321.453329,161.110439 L191.312902,162.502135 Z" id="Fill-1" fill="#EDE7F9"></path>
                <path d="M97.3597426,75.5963497 C97.3597426,75.5963497 96.820198,116.420701 126.559439,133.168712 C156.299637,149.915771 173.660059,134.324964 173.660059,134.324964 L97.3597426,75.5963497 Z" id="Fill-3" fill="#EDE7F9"></path>
                <path d="M132.034988,29.1696602 C132.034988,29.1696602 134.324169,67.9598474 160.594199,88.3281749 C186.86327,108.697456 203.376025,113.747596 203.376025,113.747596 L236.347896,24.6371164 L132.034988,29.1696602 Z" id="Fill-5" fill="#85A4E8"></path>
                <g id="Group-9" transform="translate(79.498759, 145.502760)">
                    <mask id="mask-2" fill="white">
                        <use xlink:href="#path-1"></use>
                    </mask>
                    <g id="Clip-8"></g>
                    <path d="M0.538484367,75.268348 C0.538484367,75.268348 55.3638938,-2.77910234 224.926127,0.282628655 C315.9637,1.9269269 276.70568,77.4283363 276.70568,77.4283363 L305.862569,100.424681 C305.862569,100.424681 152.443373,26.7810906 0.538484367,75.268348" id="Fill-7" fill="#49D89D" mask="url(#mask-2)"></path>
                </g>
                <path d="M202.634579,48.7235596 C202.829974,51.3763608 200.938286,53.6764719 198.409651,53.8604427 C195.880058,54.0453667 193.672291,52.0445655 193.476897,49.3917643 C193.281502,46.7389632 195.17319,44.438852 197.701825,44.2539281 C200.23046,44.0699573 202.439185,46.0707585 202.634579,48.7235596" id="Fill-10" fill="#49D89D"></path>
                <path d="M172.352544,48.3141532 C172.547938,50.9669544 170.656251,53.2670655 168.127616,53.4510363 C165.598023,53.6359602 163.390256,51.6351591 163.194862,48.9823579 C162.999467,46.3295567 164.891154,44.0294456 167.41979,43.8445216 C169.948425,43.6605509 172.157149,45.661352 172.352544,48.3141532" id="Fill-12" fill="#49D89D"></path>
                <path d="M24.8927856,131.347211 C24.8927856,131.347211 32.6539717,160.015194 55.8762298,157.973404 C79.0984878,155.931615 83.6682298,140.880328 83.6682298,140.880328 L24.8927856,131.347211 Z" id="Fill-14" fill="#DBEEFB"></path>
                <path d="M53.5944238,188.088274 C53.5944238,188.088274 66.1255355,201.164496 77.9411583,193.348122 C89.757739,185.532701 87.7999623,176.163537 87.7999623,176.163537 L53.5944238,188.088274 Z" id="Fill-16" fill="#B5EF8F"></path>
                <g id="Group-20" transform="translate(0.000000, 32.070012)">
                    <mask id="mask-4" fill="white">
                        <use xlink:href="#path-3"></use>
                    </mask>
                    <g id="Clip-19"></g>
                    <path d="M20.2506328,27.835348 L32.5652779,37.7468918 L32.5652779,0.654383041 L-0.000478908189,0.654383041 L-0.000478908189,86.4438567 L32.5652779,86.4438567 L32.5652779,52.7114357 C31.3000025,52.3406345 29.9676799,51.8535409 28.5596898,51.2101199 C15.6646079,45.3192427 20.2506328,27.835348 20.2506328,27.835348" id="Fill-18" fill="#DBEEFB" mask="url(#mask-4)"></path>
                </g>
                <path d="M1.91563275,2.22137544 C0.857245658,2.22137544 0,3.07545731 0,4.12780819 L0,12.7067556 L120.403266,12.7067556 C118.091097,9.84710643 117.312392,5.6186386 117.181171,2.22137544 L1.91563275,2.22137544 Z" id="Fill-21" fill="#DBEEFB"></path>
                <path d="M174.322581,4.12780819 C174.322581,3.07545731 173.538129,2.22137544 172.479742,2.22137544 L127.996834,2.22137544 L141.072943,12.7067556 L174.322581,12.7067556 L174.322581,4.12780819 Z" id="Fill-23" fill="#DBEEFB"></path>
                <path d="M374.896705,50.9695281 C374.896705,50.9695281 347.78667,38.576762 334.514209,57.6506216 C321.242705,76.7254345 329.948298,89.8455047 329.948298,89.8455047 L374.896705,50.9695281 Z" id="Fill-25" fill="#EDE7F9"></path>
                <g id="Group-29" transform="translate(289.260546, 0.613871)">
                    <mask id="mask-6" fill="white">
                        <use xlink:href="#path-5"></use>
                    </mask>
                    <g id="Clip-28"></g>
                    <path d="M19.2827593,0.338963743 C19.2827593,0.338963743 1.29017866,2.7639462 0.71644665,16.873455 C0.14271464,30.9820105 8.91535484,34.900683 8.91535484,34.900683 L19.2827593,0.338963743 Z" id="Fill-27" fill="#B5EF8F" mask="url(#mask-6)"></path>
                </g>
                <path d="M384.296428,131.638991 C384.296428,131.638991 378.228661,114.608827 364.234006,116.937535 C350.240309,119.266242 348.181003,128.613482 348.181003,128.613482 L384.296428,131.638991 Z" id="Fill-30" fill="#B5EF8F"></path>
                <polygon id="Fill-32" fill="#C7F3E1" points="131.643336 278.176944 163.376751 278.729809 137.534865 253.852768"></polygon>
                <polygon id="Fill-34" fill="#EDE7F9" points="193.470575 237.294351 199.072843 268.384457 218.590267 238.335264"></polygon>
                <polygon id="Fill-36" fill="#EDE7F9" points="298.297065 268.432022 270.926504 252.441818 281.16173 286.741402"></polygon>
                <polygon id="Fill-38" fill="#C7F3E1" points="275.099039 242.165192 304.471436 254.13187 289.452875 221.623379"></polygon>
                <polygon id="Fill-40" fill="#C7F3E1" points="240.511619 278.049785 235.173709 246.913925 215.401505 276.798212"></polygon>
                <polygon id="Fill-42" fill="#C7F3E1" points="195.721444 317.301901 178.871538 290.534632 172.024109 325.660655"></polygon>
                <polygon id="Fill-44" fill="#85A4E8" points="153.50971 244.723148 179.930117 268.113171 172.831739 237.579744"></polygon>
                <polygon id="Fill-46" fill="#85A4E8" points="247.254168 243.352518 258.131131 276.61977 263.734356 246.08253"></polygon>
                <polygon id="Fill-48" fill="#85A4E8" points="137.150302 301.487946 170.149949 288.841624 152.711944 314.939735"></polygon>
                <path d="M199.750115,56.7585064 C204.326562,56.4248807 207.764165,52.4623602 207.428929,47.9078924 C207.093693,43.3534246 203.112051,39.9332842 198.535604,40.2659567 C198.035624,40.3031322 197.551927,40.3898749 197.082597,40.5090269 C196.619971,40.4585064 196.149683,40.4403953 195.669817,40.4756643 C191.214056,40.8007111 187.880855,44.8528339 188.225668,49.5264538 C188.228542,49.5636292 188.235247,49.5998515 188.239078,49.6370269 C186.813847,49.3138865 185.333063,49.1766234 183.81684,49.2871965 C181.449118,49.4597287 179.247098,50.1870327 177.288363,51.3270795 C177.613063,50.3366877 177.756735,49.2700386 177.675321,48.166214 C177.340085,43.6117462 173.358443,40.1906526 168.782954,40.5252316 C167.978388,40.5833778 167.212135,40.7597228 166.491857,41.0266234 C161.994909,41.3755006 158.638721,45.5172257 158.990239,50.2976058 C159.343673,55.091331 163.290835,58.7106936 167.806939,58.3818339 C169.133515,58.2846058 170.357604,57.8508924 171.421738,57.175062 C169.489822,60.3711965 168.473579,64.2755708 168.779123,68.4239684 C169.508979,78.3345591 177.424373,85.8335123 186.459455,85.175793 C195.493579,84.5161673 202.22607,75.9486585 201.496214,66.0380678 C201.251971,62.7122959 200.183048,59.6696292 198.549013,57.1035708 C198.862219,57.012062 199.163932,56.8948164 199.459897,56.7651789 C199.556636,56.7613661 199.652418,56.7651789 199.750115,56.7585064" id="Fill-50" fill="#FFFFFF"></path>
            </g>
            <g id="Page-1" transform="translate(8.000000, 52.000000)" stroke="#271034" stroke-linecap="round" stroke-linejoin="round">
                <path d="M174.605598,4.6822253 L174.605598,20.7810928" id="Stroke-1"></path>
                <g id="Group-46" transform="translate(0.000000, 0.099940)">
                    <path d="M104.125498,115.862352 L2.39214453,115.862352 C1.33494351,115.862352 0.478658524,115.010484 0.478658524,113.958737 L0.478658524,2.28033976 C0.478658524,1.22859277 1.33494351,0.376725301 2.39214453,0.376725301 L172.692399,0.376725301 C173.748643,0.376725301 174.605885,1.22859277 174.605885,2.28033976 L174.605885,11.5633157" id="Stroke-2"></path>
                    <polyline id="Stroke-4" points="194.805696 22.5782 234.013024 21.2418627 213.509065 73.5474771"></polyline>
                    <path d="M198.783259,153.862113 C198.783259,153.862113 196.950139,146.807318 193.251371,141.194511 C187.573101,132.575896 175.815687,127.435186 175.815687,127.435186 C175.815687,127.435186 163.32158,136.188005 134.411676,127.185812 C105.500816,118.183619 107.044043,94.5445349 101.338027,88.4253663 C95.6320122,82.3052458 89.1969588,87.2555952 78.5331013,80.645294 C68.7848468,74.6032217 73.8594117,70.2629807 67.3143328,60.6573422 C66.4293455,59.3571735 67.4023532,57.5687277 68.9781089,57.661053 C83.3933557,58.5034024 100.890272,73.426788 100.890272,73.426788 L145.851452,104.132089 L156.542099,79.825788 C156.542099,79.825788 150.701183,76.3307518 138.435737,56.9652819 C126.170292,37.599812 127.499208,24.4325108 127.499208,24.4325108 L162.483473,23.8347759" id="Stroke-6"></path>
                    <path d="M224.397757,46.7772325 C233.123253,48.9111843 270.981574,59.6028349 297.345584,91.7805819 C310.471141,107.800449 315.784892,129.77863 317.591222,149.554329" id="Stroke-8"></path>
                    <polyline id="Stroke-10" points="224.196745 106.820183 233.745997 129.093424 213.667788 150.81652"></polyline>
                    <path d="M264.405975,87.3449699 C272.402433,96.4404398 284.019206,113.331211 279.05084,130.530367 C277.333486,136.476307 273.844244,141.40191 269.509242,145.459464" id="Stroke-12"></path>
                    <path d="M197.796761,61.6236169 C197.796761,61.6236169 194.390756,62.1985084 187.338604,62.3317614 C182.02581,62.4317012 175.884476,61.4237373 175.884476,61.4237373" id="Stroke-14"></path>
                    <path d="M205.229028,74.1915651 C214.407064,56.0948542 205.619379,47.4924205 205.619379,47.4924205" id="Stroke-16"></path>
                    <path d="M312.30981,217.844499 C312.272497,222.148571 311.876405,227.823246 310.51209,233.888161 C306.46985,251.844957 296.133199,263.959559 280.617698,268.920378 C263.884263,274.268583 248.792598,270.31192 232.81499,266.122065 C217.047866,261.985511 200.745922,257.714752 179.261301,260.906161 C168.256843,262.544222 161.137718,266.078282 159.215621,270.858258 C157.294481,275.635378 160.003021,282.395113 163.332487,286.652547 C166.235245,290.363643 171.920212,292.66892 177.478889,292.387186 C179.863092,292.269161 184.108161,291.54674 186.304843,288.056463 C189.571163,282.871017 196.445362,281.298631 201.655784,284.548101 C206.870034,287.796619 208.44866,294.634402 205.182339,299.819848 C199.807357,308.359463 190.476242,313.663884 179.490919,314.466258 C179.199112,314.487198 178.906349,314.50433 178.609759,314.519559 C165.730084,315.171547 153.140303,309.707222 145.751377,300.259583 C138.615988,291.134607 132.972161,276.456788 138.533708,262.627029 C142.059306,253.859933 151.413382,242.643836 175.966278,238.9908 C201.985861,235.117896 222.229586,240.428981 238.494217,244.693077 C252.336375,248.325173 263.26812,251.189161 273.800904,247.823571 C292.871662,241.725342 289.864619,212.896053 289.833046,212.605752" id="Stroke-18"></path>
                    <path d="M365.036873,196.234953 C367.086217,172.603483 352.597301,140.716037 255.841881,146.652459 C104.995082,155.906881 74.4242728,216.517013 74.4242728,216.517013 C74.4242728,216.517013 152.30411,192.39917 252.214868,204.427158 C370.418553,218.657628 375.696904,239.864845 375.696904,239.864845" id="Stroke-20"></path>
                    <path d="M157.808731,49.0177867 C157.808731,49.0177867 149.008609,70.6552205 168.388395,81.9674494" id="Stroke-22"></path>
                    <path d="M172.157293,34.2476422 C172.157293,34.2476422 184.463878,26.7150398 194.190127,34.6017145" id="Stroke-24"></path>
                    <path d="M203.139693,44.6236735 C203.315733,47.0174687 201.679703,49.0866976 199.483978,49.2466012 C197.289209,49.4074566 195.366156,47.5961675 195.190115,45.2033241 C195.014074,42.8095289 196.650105,40.7403 198.84583,40.5794446 C201.040598,40.419541 202.963652,42.2298783 203.139693,44.6236735 Z" id="Stroke-26"></path>
                    <path d="M323.360096,211.596265 L311.181714,201.097831 C311.181714,201.097831 338.810538,164.765446 301.328218,140.19359" id="Stroke-28"></path>
                    <path d="M277.619744,202.524305 L268.936344,195.343871 C268.936344,195.343871 278.919001,161.55757 239.642787,142.78222" id="Stroke-30"></path>
                    <path d="M230.305358,198.338828 L221.036432,193.288539 C221.036432,193.288539 216.406752,159.325201 180.195943,151.09302" id="Stroke-32"></path>
                    <path d="M186.003469,195.20624 L176.32123,191.489433 C176.32123,191.489433 171.430359,159.417336 129.281046,168.259625" id="Stroke-34"></path>
                    <path d="M138.294235,198.684429 L129.344861,198.029586 C129.344861,198.029586 124.310479,185.19732 85.360515,190.612152" id="Stroke-36"></path>
                    <path d="M174.242323,45.0707373 C174.418363,47.4645325 172.806251,49.5318578 170.641142,49.6898578 C168.476033,49.8478578 166.577854,48.0356169 166.401814,45.6427735 C166.224816,43.2489783 167.837885,41.1807012 170.002994,41.0227012 C172.168104,40.8647012 174.066282,42.6769422 174.242323,45.0707373 Z" id="Stroke-38"></path>
                    <path d="M0.797253944,10.687653 L173.967737,10.687653" id="Stroke-40"></path>
                    <path d="M32.8481445,31.1515084 L32.8481445,115.862352" id="Stroke-42"></path>
                    <path d="M0.797253944,30.6756048 L125.173844,30.6756048" id="Stroke-44"></path>
                </g>
            </g>
        </g>
    </g>
</svg>