<?xml version="1.0" encoding="UTF-8"?>
<svg width="400px" height="400px" viewBox="0 0 400 400" version="1.1" xmlns="http://www.w3.org/2000/svg" xmlns:xlink="http://www.w3.org/1999/xlink">
    <!-- Generator: Sketch 48.1 (47250) - http://www.bohemiancoding.com/sketch -->
    <title>illo-large-car</title>
    <desc>Created with Sketch.</desc>
    <defs>
        <polygon id="path-1" points="0.3497 0.4255 54.0617 0.4255 54.0617 48 0.3497 48"></polygon>
    </defs>
    <g id="Page-1" stroke="none" stroke-width="1" fill="none" fill-rule="evenodd">
        <g id="illo-large-car">
            <g id="Page-1" transform="translate(0.000000, 29.000000)">
                <polygon id="Fill-1" fill="#EDE7F9" points="0 275.5515 41.981 300.6125 42.404 288.3395 0.792 266.8445"></polygon>
                <polygon id="Fill-2" fill="#49D89D" points="184.0484 28.6689 254.1674 168.1469 185.1674 166.6249 187.6674 130.1019 172.6674 128.5799 172.1674 33.7909"></polygon>
                <g id="Group-54" transform="translate(8.000000, 0.535000)">
                    <path d="M290.4597,299.2485 C264.8237,299.2555 228.9457,299.6065 180.4067,300.7485 C171.3297,300.9625 162.6127,301.2115 154.2447,301.4895 C153.9237,311.7365 148.2677,320.5785 140.0727,325.1075 C158.4587,324.2105 176.9217,323.4735 193.3887,323.1075 C226.5647,322.3695 275.3777,321.6325 315.1787,321.0875 C302.9927,320.4505 292.9637,311.3065 290.4597,299.2485" id="Fill-3" fill="#85A4E8"></path>
                    <path d="M318.6118,321.0412 C355.0288,320.5462 383.0768,320.2222 383.0768,320.2222 L344.8508,300.0272 C344.8508,300.0272 344.0888,299.9882 342.4738,299.9272 C339.7948,311.4162 330.2488,320.1122 318.6118,321.0412" id="Fill-5" fill="#85A4E8"></path>
                    <path d="M101.0752,303.8494 C32.7332,307.7064 0.0952,313.0094 0.0952,313.0094 L32.5512,331.7624 C32.5512,331.7624 72.0412,328.7924 117.4922,326.2834 C108.6832,322.5404 102.2282,314.0394 101.0752,303.8494" id="Fill-7" fill="#85A4E8"></path>
                    <polygon id="Fill-9" fill="#EDE7F9" points="106.8993 223.3712 151.2603 184.9612 136.4103 244.6712 103.1123 231.4862"></polygon>
                    <polygon id="Fill-11" fill="#49D89D" points="278.8399 160.7283 279.5609 110.2413 268.3819 109.5203 268.0209 158.2043"></polygon>
                    <path d="M46.3529,259.1422 C46.3529,259.1422 51.6149,265.9072 50.8629,271.9212 C50.1119,277.9352 48.5009,277.7792 48.5009,277.7792 L382.6379,263.6522 C382.6379,263.6522 385.6449,256.1352 381.8859,250.8732 C367.6029,250.1212 368.3549,238.0942 368.3549,238.0942 C368.3549,238.0942 132.7999,241.1012 46.3529,259.1422" id="Fill-13" fill="#EDE7F9"></path>
                    <g id="Group-17" transform="translate(94.000000, 284.000000)">
                        <mask id="mask-2" fill="white">
                            <use xlink:href="#path-1"></use>
                        </mask>
                        <g id="Clip-16"></g>
                        <path d="M54.0617,33.9985 C48.9247,42.4075 39.8057,48.0005 29.4117,48.0005 C13.3617,48.0005 0.3497,34.6635 0.3497,18.2125 C0.3497,11.5455 2.4867,5.3895 6.0977,0.4255" id="Fill-15" fill="#EDE7F9" mask="url(#mask-2)"></path>
                    </g>
                    <path d="M335.4308,311.1164 C330.3338,319.3314 321.2848,324.7944 310.9728,324.7944 C295.0468,324.7944 282.1358,311.7664 282.1358,295.6954 C282.1358,289.1814 284.2568,283.1674 287.8388,278.3184" id="Fill-18" fill="#EDE7F9"></path>
                    <polyline id="Fill-20" fill="#49D89D" points="238.6672 20.1122 268.0052 74.2142 268.3822 26.1822"></polyline>
                    <path d="M37.9819,261.2995 C37.8689,261.3045 37.3299,261.3445 37.2219,261.3795 L5.1039,247.4315 L4.8869,247.0105 C4.4999,246.2575 3.6979,245.5385 2.9799,245.9875 L2.3549,247.6745 C2.4079,248.9545 2.4929,251.2985 2.6099,254.1015 C2.7059,256.3805 4.0799,259.8425 4.6199,261.7455 C4.7749,262.2935 5.3619,262.5885 5.8969,262.3955 L6.8609,262.0475 L36.0269,277.2925 C36.7319,279.3365 37.7329,280.6135 38.7609,280.5705 C40.6249,280.4925 41.9689,276.1155 41.7469,270.7935 C41.5239,265.4725 39.8459,261.2215 37.9819,261.2995" id="Fill-22" fill="#EDE7F9"></path>
                    <path d="M4.566,237.1971 C4.566,237.1971 22.729,233.5331 55.546,232.7641 C88.364,231.9951 106.638,234.3271 106.638,234.3271 C106.638,234.3271 17.558,241.1741 10.501,247.4451 C8.16,239.5591 4.566,237.1971 4.566,237.1971" id="Fill-24" fill="#EDE7F9"></path>
                    <path d="M318.6118,321.0412 C317.4748,321.0562 316.3308,321.0722 315.1788,321.0882 C315.6298,321.1112 316.0848,321.1242 316.5418,321.1242 C317.2378,321.1242 317.9288,321.0962 318.6118,321.0412" id="Fill-26" fill="#C8F3E1"></path>
                    <polygon id="Fill-28" fill="#49D89D" points="135.1672 127.2722 160.7102 128.0252 159.8042 166.4452 135.1672 160.7952"></polygon>
                    <polyline id="Fill-30" fill="#EDE7F9" points="192.6672 178.1121 229.6672 177.6121 234.6672 234.6121"></polyline>
                    <polyline id="Fill-32" fill="#EDE7F9" points="279.1672 177.1121 310.6672 177.1121 321.4172 234.6121"></polyline>
                    <path d="M247.1672,235.6121 C247.1672,234.1121 244.1672,208.1121 244.1672,208.1121 L263.1672,234.6121 L247.1672,235.6121 Z" id="Fill-34" fill="#EDE7F9"></path>
                    <path d="M156.1672,239.6121 C156.1672,238.1121 159.1672,212.1121 159.1672,212.1121 L179.1672,238.6121 L156.1672,239.6121 Z" id="Fill-36" fill="#EDE7F9"></path>
                    <path d="M217.0551,23.2044 C217.0551,23.2044 252.6681,16.4244 243.3161,5.5874 C234.4971,-4.6326 217.0551,23.2044 217.0551,23.2044" id="Fill-38" fill="#DBEEFB"></path>
                    <path d="M219.3688,23.0557 C219.3688,23.0557 202.3078,-8.9313 194.7408,3.2197 C187.6048,14.6777 219.3688,23.0557 219.3688,23.0557" id="Fill-40" fill="#DBEEFB"></path>
                    <path d="M386.3246,97.2651 C386.3246,97.2651 370.0836,70.6871 347.4216,79.5661 C324.7596,88.4461 324.6266,104.9401 324.6266,104.9401 L386.3246,97.2651 Z" id="Fill-42" fill="#C7F3E1"></path>
                    <path d="M346.2448,40.5103 C346.2448,40.5103 329.2338,32.1443 320.4818,44.0953 C311.7288,56.0463 317.0368,64.5663 317.0368,64.5663 L346.2448,40.5103 Z" id="Fill-44" fill="#B5EF8F"></path>
                    <path d="M346.1428,162.9801 C346.1428,162.9801 350.8498,144.6171 337.3608,138.4961 C323.8708,132.3751 316.6178,139.3141 316.6178,139.3141 L346.1428,162.9801 Z" id="Fill-46" fill="#EDE7F9"></path>
                    <path d="M55.1563,80.5755 C55.1563,80.5755 63.2593,110.6505 87.5043,108.5085 C111.7493,106.3665 116.5203,90.5765 116.5203,90.5765 L55.1563,80.5755 Z" id="Fill-48" fill="#DBEEFB"></path>
                    <path d="M82.122,138.1014 C82.122,138.1014 95.205,151.8194 107.541,143.6194 C119.878,135.4204 117.834,125.5914 117.834,125.5914 L82.122,138.1014 Z" id="Fill-50" fill="#B5EF8F"></path>
                    <path d="M100.3097,42.6271 C100.3097,42.6271 95.5217,60.9691 108.9847,67.1491 C122.4467,73.3301 129.7307,66.4221 129.7307,66.4221 L100.3097,42.6271 Z" id="Fill-52" fill="#EDE7F9"></path>
                </g>
            </g>
            <g id="Page-1" transform="translate(5.000000, 30.000000)" stroke="#271034">
                <path d="M349.6022,287.9213 C368.8202,287.1223 381.3422,286.5973 381.3422,286.5973 C381.3422,286.5973 389.2762,243.3223 374.8512,233.9463 C361.1822,225.0623 341.0382,220.0633 329.7582,218.9493" id="Stroke-1"></path>
                <path d="M160.6218,295.3969 C179.7078,294.7549 200.8738,293.9889 223.3898,293.0889 C244.9418,292.2269 268.7598,291.2559 291.2228,290.3339" id="Stroke-3"></path>
                <path d="M64.7153,298.1374 C64.7153,298.1374 78.0813,297.8564 100.7733,297.2314" id="Stroke-5"></path>
                <path d="M140.2852,162.3934 C130.9242,161.9274 130.9242,166.3434 132.2572,170.5934" id="Stroke-7"></path>
                <path d="M332.9243,233.9269 C330.7603,225.2719 322.9213,179.1319 322.9213,179.1319 C322.9213,179.1319 326.5303,175.8669 322.9243,172.2599 C320.9343,170.2699 313.4143,167.0649 296.6583,162.6289" id="Stroke-9"></path>
                <path d="M251.1575,240.4377 C306.6935,238.9947 322.9215,236.8317 322.9215,236.8317" id="Stroke-11"></path>
                <path d="M161.9925,243.737 C174.8615,243.232 202.3835,242.146 235.6625,240.798" id="Stroke-13"></path>
                <path d="M159.1985,297.7768 C159.1985,315.1038 146.9275,329.1508 131.7915,329.1508 C116.6545,329.1508 104.3835,315.1038 104.3835,297.7768 C104.3835,280.4488 116.6545,266.4028 131.7915,266.4028 C146.9275,266.4028 159.1985,280.4488 159.1985,297.7768 Z" id="Stroke-15"></path>
                <path d="M115.6008,283.5574 C119.3058,278.5684 124.8288,275.4024 130.9978,275.4024 C142.1548,275.4024 151.1988,285.7554 151.1988,298.5264 C151.1988,302.5304 150.3098,306.2964 148.7458,309.5804" id="Stroke-17"></path>
                <path d="M306.9096,275.9124 C310.4346,272.4764 315.0046,270.4024 319.9976,270.4024 C331.1546,270.4024 340.1986,280.7554 340.1986,293.5264 C340.1986,295.9664 339.8686,298.3184 339.2566,300.5264" id="Stroke-19"></path>
                <path d="M304.6008,278.5574 C305.3068,277.6064 306.0798,276.7214 306.9098,275.9124" id="Stroke-21"></path>
                <path d="M100.8001,295.5992 C100.7851,295.1852 100.7771,294.7692 100.7771,294.3512 C100.7771,276.5252 114.5011,262.0752 131.4301,262.0752 C148.0731,262.0752 161.6181,276.0412 162.0721,293.4492" id="Stroke-23"></path>
                <path d="M289.947,290.1899 C289.932,289.7759 289.924,289.3599 289.924,288.9419 C289.924,271.1159 303.648,256.6659 320.577,256.6659 C337.22,256.6659 350.765,270.6319 351.219,288.0399" id="Stroke-25"></path>
                <path d="M104.4424,307.623 C99.7144,312.062 93.6654,314.726 87.0734,314.726 C79.7934,314.726 73.1754,311.476 68.2674,306.175" id="Stroke-27"></path>
                <path d="M347.4439,291.9024 C347.4439,308.7744 335.4959,322.4514 320.7579,322.4514 C306.0199,322.4514 294.0719,308.7744 294.0719,291.9024 C294.0719,275.0304 306.0199,261.3534 320.7579,261.3534 C335.4959,261.3534 347.4439,275.0304 347.4439,291.9024 Z" id="Stroke-29"></path>
                <path d="M289.6301,298.0571 C284.7391,305.0161 277.2381,309.4681 268.8281,309.4681 C259.8941,309.4681 251.9851,304.4431 247.1411,296.7261" id="Stroke-31"></path>
                <path d="M17.113,254.8626 L37.308,264.5996" id="Stroke-33"></path>
                <path d="M182.8401,164.0187 C191.9201,165.7397 207.2591,166.8707 224.6521,166.8707 C252.5351,166.8707 275.1391,163.9647 275.1391,160.3797 C275.1391,160.3797 275.4501,32.3077 275.1391,31.9977 C272.6041,29.4627 252.5351,25.5067 224.6521,25.5067 C196.7681,25.5067 174.1641,28.4127 174.1641,31.9977 C174.1641,31.9977 174.4001,89.5017 174.5561,127.2567" id="Stroke-35"></path>
                <path d="M230.256,69.6711 C228.426,69.6491 226.557,69.6371 224.652,69.6371 C196.768,69.6371 174.164,71.4541 174.164,73.6941" id="Stroke-37"></path>
                <path d="M275.1389,73.6945 C273.9969,72.9805 269.2929,72.0865 261.9189,71.3185" id="Stroke-39"></path>
                <path d="M250.9511,121.9809 C243.4581,122.2579 234.5471,122.4399 224.6521,122.4399 C196.7681,122.4399 174.1641,121.3759 174.1641,120.0629" id="Stroke-41"></path>
                <path d="M161.3623,242.962 C161.3623,248.872 158.7793,253.664 155.5923,253.664 C152.4053,253.664 149.8223,248.872 149.8223,242.962 C149.8223,237.052 152.4053,232.26 155.5923,232.26 C158.7793,232.26 161.3623,237.052 161.3623,242.962 Z" id="Stroke-43"></path>
                <polygon id="Stroke-45" points="142.4243 162.5431 166.5883 168.3131 182.6373 166.8701 184.1713 127.9231 159.3313 126.8411 142.4243 128.6441"></polygon>
                <polyline id="Stroke-47" points="152.8876 166.1493 153.6086 130.0873 184.9826 27.6703"></polyline>
                <polyline id="Stroke-49" points="275.1389 160.3793 286.6789 162.9033 294.9729 162.1823 296.4159 110.9743 275.8599 109.8923"></polyline>
                <path d="M275.8479,74.4931 L288.6619,111.3341" id="Stroke-51"></path>
                <path d="M133.2337,169.7555 L119.9247,200.9265 L105.1047,231.7825 C105.1047,231.7825 50.6507,231.7825 7.7367,240.4375 C7.7367,240.4375 2.6877,246.2075 3.4097,251.2565 C4.1307,256.3055 7.7367,264.2385 7.7367,264.2385 L1.2457,267.1235 L0.5247,275.0575 C0.5247,275.0575 35.8657,299.5795 45.9627,301.7435 C56.0607,303.9075 64.7157,303.9075 64.7157,303.9075 L63.9937,289.4825" id="Stroke-53"></path>
                <path d="M141.1674,245.4864 L160.1204,176.7584" id="Stroke-55"></path>
                <path d="M222.4831,25.1764 C222.4831,25.1764 258.1601,7.4584 245.2581,1.2604 C233.0901,-4.5846 222.4831,25.1764 222.4831,25.1764 Z" id="Stroke-57"></path>
                <path d="M222.9243,24.9269 C222.9243,24.9269 203.5913,-5.7401 196.9243,6.9269 C190.6373,18.8719 222.9243,24.9269 222.9243,24.9269 Z" id="Stroke-59"></path>
                <path d="M155.5923,242.962 L144.9243,250.594" id="Stroke-61"></path>
            </g>
        </g>
    </g>
</svg>