<?xml version="1.0" encoding="UTF-8"?>
<svg width="150px" height="150px" viewBox="0 0 150 150" version="1.1" xmlns="http://www.w3.org/2000/svg" xmlns:xlink="http://www.w3.org/1999/xlink">
    <!-- Generator: Sketch 48.1 (47250) - http://www.bohemiancoding.com/sketch -->
    <title>illo-spot-cage</title>
    <desc>Created with Sketch.</desc>
    <defs>
        <polygon id="path-1" points="0.00017405302 0.196 105.159 0.196 105.159 113.2037 0.00017405302 113.2037"></polygon>
    </defs>
    <g id="Page-1" stroke="none" stroke-width="1" fill="none" fill-rule="evenodd">
        <g id="illo-spot-cage">
            <g id="Page-1" transform="translate(3.000000, 18.000000)">
                <g id="Group-3" transform="translate(0.000000, 0.804000)">
                    <mask id="mask-2" fill="white">
                        <use xlink:href="#path-1"></use>
                    </mask>
                    <g id="Clip-2"></g>
                    <path d="M104.7161,100.5727 C104.9981,99.9627 105.1591,99.3417 105.1591,98.7107 C105.1591,98.0787 104.9981,97.4577 104.7161,96.8477 L104.7161,48.8717 C104.7161,48.8717 102.3741,30.1047 95.0441,21.8947 C87.7131,13.6837 81.5601,0.1957 54.5831,0.1957 C54.5831,0.1957 83.9051,9.2857 92.1161,26.5857 C100.3261,43.8867 98.8601,59.1347 98.8601,68.5177 C98.8601,77.9007 98.8561,91.6827 98.8561,91.6827 L98.9531,91.8477 C90.1541,87.3057 72.8961,84.2177 53.0411,84.2177 C51.3171,84.2177 49.6141,84.2417 47.9331,84.2877 C42.1321,79.9997 30.1981,70.2657 22.0341,57.3747 C10.8921,39.7807 10.2861,21.1157 10.2861,21.1157 C5.2571,29.2767 2.1821,38.4087 1.3681,45.9387 C-0.3909,62.2127 0.0491,97.4007 0.0491,97.4007 C0.0491,97.4007 0.5301,97.1957 1.3631,96.8517 C1.0831,97.4607 0.9221,98.0807 0.9221,98.7107 C0.9221,106.7147 24.2561,113.2037 53.0411,113.2037 C78.8451,113.2037 100.2561,107.9867 104.4151,101.1407 L104.7161,101.6517 L104.7161,100.5727 Z" id="Fill-1" fill="#C8F3E1" mask="url(#mask-2)"></path>
                </g>
                <path d="M53.0406,117.5259 C27.4996,117.5259 6.2636,112.4159 1.7996,105.6719 C1.2336,106.5279 0.9226,107.4099 0.9226,108.3109 C0.9226,116.3149 24.2566,122.8039 53.0406,122.8039 C81.8246,122.8039 105.1586,116.3149 105.1586,108.3109 C105.1586,107.4099 104.8476,106.5279 104.2816,105.6719 C99.8176,112.4159 78.5816,117.5259 53.0406,117.5259" id="Fill-4" fill="#49D89D"></path>
            </g>
            <g id="Page-1" transform="translate(2.000000, 3.000000)" stroke="#271034" stroke-linecap="round" stroke-linejoin="round">
                <path d="M104.7364,117.6237 C104.7604,125.6277 81.4464,132.1867 52.6614,132.2737 C23.8774,132.3597 0.5244,125.9417 0.5004,117.9377 C0.4764,109.9337 23.7904,103.3747 52.5744,103.2877 C81.3584,103.2007 104.7124,109.6197 104.7364,117.6237 Z" id="Stroke-1"></path>
                <path d="M85.6057,41.397 C93.5937,42.291 98.5077,43.523 98.5117,44.898 C98.5197,47.716 77.8817,50.063 52.4147,50.14 C26.9477,50.217 6.2957,47.994 6.2867,45.175 C6.2847,44.308 8.2397,43.484 11.6917,42.758" id="Stroke-3"></path>
                <path d="M71.4743,26.0156 C80.8433,26.4996 87.0233,27.3576 87.0263,28.3536 C87.0303,29.9316 71.5093,31.2586 52.3583,31.3156 C36.9283,31.3626 23.8503,30.5706 19.3473,29.4366" id="Stroke-5"></path>
                <path d="M99.3505,64.8485 C102.5925,66.0435 104.4105,67.3875 104.4145,68.8115 C104.4295,73.9125 81.1865,78.1185 52.4995,78.2045 C23.8115,78.2905 0.5435,74.2255 0.5285,69.1245 C0.5195,66.2585 7.8525,63.6755 19.3665,61.9465" id="Stroke-7"></path>
                <path d="M76.9323,105.923 C69.7693,106.736 61.6473,107.207 53.0393,107.233 C24.1023,107.32 0.6283,102.345 0.6093,96.12 C0.5943,91.193 15.2863,86.959 35.7673,85.366" id="Stroke-9"></path>
                <path d="M53.42,16.3307 C85.539,16.2337 104.446,42.2127 104.529,69.6937 C104.559,79.8187 104.674,117.7857 104.674,117.7857 C105.675,118.2207 104.724,123.9307 104.724,123.9307 C104.748,131.9347 81.449,138.4937 52.665,138.5797 C23.881,138.6667 0.534,132.2487 0.51,124.2437 C0.51,124.2437 1.675,118.5337 0.674,118.0987 C0.674,118.0987 0.56,80.1317 0.529,70.0067 C0.491,57.3847 4.429,45.0567 11.811,35.4057" id="Stroke-11"></path>
                <path d="M52.7161,131.9863 L52.3611,11.9233" id="Stroke-13"></path>
                <path d="M10.7012,127.1127 C10.7012,127.1127 10.5752,85.3777 10.5422,74.4147 C10.4832,54.5377 17.3372,35.4777 29.7572,24.9877" id="Stroke-15"></path>
                <path d="M27.7162,132.0615 C27.7162,132.0615 27.5842,88.1685 27.5502,76.7515 C27.4562,45.7645 36.6772,16.9215 52.5272,16.8735" id="Stroke-17"></path>
                <path d="M95.5208,74.1588 C95.4308,44.4018 79.9518,16.2898 52.4618,16.3726167" id="Stroke-19"></path>
                <path d="M77.716,131.9111 C77.716,131.9111 77.584,88.0181 77.55,76.6011 C77.456,45.6141 68.062,16.8271 52.212,16.8740425" id="Stroke-21"></path>
                <path d="M104.424,72.0336 C104.411,67.8246 113.847,64.9586 125.457,64.9236 C137.067,64.8886 146.523,67.6986 146.536,71.9066 C146.536,71.9066 146.68,120.0096 146.678,119.0576 C146.665,114.8486 137.209,113.5556 125.599,113.5906 C113.988,113.6256 104.57,114.9756 104.583,119.1836" id="Stroke-23"></path>
                <path d="M104.490187,95.0255 C104.4772,90.8165 113.9132,87.3765 125.5232,87.3415 C137.1332,87.3065 146.5892,90.6905 146.6022,94.8985" id="Stroke-25"></path>
                <path d="M125.5141,64.7669 L125.6551,112.9239" id="Stroke-27"></path>
                <path d="M72.8531,137.3664 C73.1331,137.7474 73.2811,138.1424 73.2831,138.5474 C73.2921,141.7854 63.9141,144.4394 52.3351,144.4744 C40.7561,144.5094 31.3611,141.9124 31.3511,138.6734" id="Stroke-29"></path>
                <path d="M52.3748,11.6422 C55.4518,11.6332 57.9388,9.1312 57.9298,6.0542 C57.9198,2.9772 55.4178,0.4902 52.3408,0.4992 C49.2648,0.5092 46.7778,3.0112 46.7868,6.0872 C46.7958,9.1642 49.2978,11.6512 52.3748,11.6422" id="Stroke-31"></path>
            </g>
        </g>
    </g>
</svg>