<?xml version="1.0" encoding="UTF-8"?>
<svg width="150px" height="150px" viewBox="0 0 150 150" version="1.1" xmlns="http://www.w3.org/2000/svg" xmlns:xlink="http://www.w3.org/1999/xlink">
    <!-- Generator: Sketch 48.1 (47250) - http://www.bohemiancoding.com/sketch -->
    <title>illo-spot-dollar</title>
    <desc>Created with Sketch.</desc>
    <defs>
        <polygon id="path-1" points="0 0.7963 108.1364 0.7963 108.1364 135 0 135"></polygon>
    </defs>
    <g id="Page-1" stroke="none" stroke-width="1" fill="none" fill-rule="evenodd">
        <g id="illo-spot-dollar">
            <g id="Page-1" transform="translate(2.000000, 1.000000)">
                <polygon id="Fill-1" fill="#C8F3E1" points="61.7285 19.5214 126.5805 89.1274 126.5805 19.5214"></polygon>
                <polygon id="Fill-2" fill="#49D89D" points="43.2072 -0.0001 54.8922 12.5219 134.5802 12.5219 134.5802 97.9139 146.5802 110.7729 146.5802 0.3139"></polygon>
                <g id="Group-5" transform="translate(0.000000, 12.725000)">
                    <mask id="mask-2" fill="white">
                        <use xlink:href="#path-1"></use>
                    </mask>
                    <g id="Clip-4"></g>
                    <path d="M83.9304,93.5283 C81.1314,94.4933 77.9564,95.0463 74.5804,95.0463 C63.3964,95.0463 54.3304,89.0583 54.3304,81.6713 C54.3304,77.5893 57.1074,73.9403 61.4724,71.4863 C52.4184,62.6073 45.2734,55.6093 43.8844,54.2763 C38.6824,57.9613 34.3194,62.6753 31.0894,68.0983 C29.2874,61.5923 26.6264,52.9443 23.3514,45.0493 C25.2054,41.4363 27.9344,34.8643 28.5804,26.4633 C29.5804,13.4633 19.2474,0.7963 19.2474,0.7963 C19.2474,0.7963 14.2474,13.7963 15.9134,23.7963 C16.4504,27.0163 17.2294,30.6843 18.0384,34.1803 C8.7814,18.6453 0.0924,19.2493 0.0924,19.2493 C-1.7526,43.1293 24.5804,49.7963 28.8834,72.2783 C28.6174,72.8583 27.3724,76.4483 27.1324,77.0413 C26.1884,75.4403 24.9984,73.6613 23.4874,71.6653 C10.5894,54.6203 1.4544,53.4633 1.4544,53.4633 C1.0834,69.7883 10.3304,81.0463 24.7184,85.5083 C23.0304,85.3723 20.5574,85.6983 16.9204,86.9123 C4.7344,90.9803 3.8354,97.1053 3.8354,97.1053 C11.9854,100.0653 20.4304,94.6923 24.9734,91.2533 C25.4924,115.4973 46.0024,135.0003 71.2444,135.0003 C86.3054,135.0003 99.6814,128.0543 108.1364,117.3063 C107.3964,116.5763 96.5354,105.9043 83.9304,93.5283" id="Fill-3" fill="#C8F3E1" mask="url(#mask-2)"></path>
                </g>
            </g>
            <g id="Page-1" transform="translate(32.000000, 1.000000)" stroke="#271034" stroke-linecap="round">
                <g id="Group-5" transform="translate(1.000000, 0.850000)">
                    <polyline id="Stroke-1" points="80.2215 0.6497 115.7215 0.6497 115.7215 97.1497"></polyline>
                    <polyline id="Stroke-3" points="0.2215 5.6497 110.7215 5.6497 110.7215 70.1497"></polyline>
                </g>
                <polyline id="Stroke-6" points="69.2215 12.4997 104.7215 12.4997 104.7215 119.9997"></polyline>
                <g id="Group-15" transform="translate(0.000000, 29.850000)">
                    <path d="M62.6815,101.9047 C64.7985,100.0997 63.5375,97.2427 62.8335,94.5507 L64.9915,92.3917 L68.5985,95.0057 C69.2875,95.5047 70.2285,95.4677 70.8755,94.9157 L83.4305,84.2077 C83.4305,84.2077 74.0765,66.4437 74.0765,50.2537 C74.0765,38.3527 77.7695,24.2897 79.7265,17.6737 C80.2335,15.9607 79.0335,14.1887 77.2505,14.0877 C75.6585,13.9977 73.9095,13.6147 72.8165,12.5227 C71.4815,11.1867 71.2885,8.7087 71.3855,6.7477 C71.4625,5.1857 70.1855,3.8877 68.6205,3.8877 L48.5325,3.8877 L44.4845,0.6497 L42.4155,0.6497 L38.3685,3.8877 L18.2805,3.8877 C16.7155,3.8877 15.4385,5.1857 15.5155,6.7477 C15.6125,8.7087 15.4195,11.1867 14.0835,12.5227 C12.9905,13.6147 11.2425,13.9977 9.6495,14.0877 C7.8665,14.1887 6.6675,15.9607 7.1735,17.6737 C9.1305,24.2897 12.8245,38.3527 12.8245,50.2537 C12.8245,66.4437 3.4705,84.2077 3.4705,84.2077 L16.0255,94.9157 C16.6725,95.4677 17.6135,95.5047 18.3025,95.0057 L21.9085,92.3917 L24.0675,94.5507 C23.3635,97.2427 22.1025,100.0997 24.2195,101.9047 L38.5535,111.8557 C41.7805,114.0947 46.0725,114.0427 49.2435,111.7257 L62.6815,101.9047 Z" id="Stroke-7"></path>
                    <path d="M9.6765,58.6633 C9.6765,58.6633 7.5175,46.5213 4.0105,44.6323 L0.5025,42.7433 C0.5025,42.7433 0.2325,36.8073 5.6295,39.2353 C-0.0375,33.0293 4.5495,18.1883 4.5495,18.1883" id="Stroke-9"></path>
                    <path d="M77.1319,58.6633 C77.1319,58.6633 79.2909,46.5213 82.7979,44.6323 L86.3059,42.7433 C86.3059,42.7433 86.5759,36.8073 81.1789,39.2353 C86.8459,33.0293 82.2589,18.1883 82.2589,18.1883" id="Stroke-11"></path>
                    <path d="M44.9715,79.181 C58.7215,79.181 64.0545,70.301 64.0545,62.816 C64.0545,53.566 55.1595,47.408 55.1595,47.408 C55.1595,47.408 62.3885,45.941 62.3885,36.316 C62.3885,26.691 53.5805,21.025 43.3305,21.025 C28.4555,21.025 24.2135,27.025 24.2135,33.525 C24.2135,38.702 28.4145,42.9 33.5925,42.9 C38.7705,42.9 42.9695,38.702 42.9695,33.525 C42.9695,28.984 39.7415,25.199 35.4555,24.336 C35.6515,24.324 35.8515,24.317 36.0545,24.317 C44.7215,24.317 47.0545,29.483 47.0545,34.316 C47.0545,44.15 37.3885,47.483 32.3885,49.816 C30.8025,50.556 47.5545,53.483 47.5545,66.15 C47.5545,76.875 35.3605,74.926 34.7505,74.821 C39.3825,74.252 42.9715,70.311 42.9715,65.525 C42.9715,60.347 38.5245,56.15 33.3465,56.15 C28.1685,56.15 23.7215,59.65 23.7215,65.525 C23.7215,71.9 30.0335,79.181 44.9715,79.181 Z" id="Stroke-13" stroke-linejoin="round"></path>
                </g>
            </g>
        </g>
    </g>
</svg>