<?xml version="1.0" encoding="UTF-8"?>
<svg width="150px" height="150px" viewBox="0 0 150 150" version="1.1" xmlns="http://www.w3.org/2000/svg" xmlns:xlink="http://www.w3.org/1999/xlink">
    <!-- Generator: Sketch 48.1 (47250) - http://www.bohemiancoding.com/sketch -->
    <title>illo-spot-package</title>
    <desc>Created with Sketch.</desc>
    <defs></defs>
    <g id="Page-1" stroke="none" stroke-width="1" fill="none" fill-rule="evenodd">
        <g id="illo-spot-package">
            <g id="Page-1" transform="translate(4.000000, 13.000000)">
                <path d="M13.2043,6.6025 C13.2043,10.2485 10.2483,13.2045 6.6023,13.2045 C2.9563,13.2045 0.0003,10.2485 0.0003,6.6025 C0.0003,2.9565 2.9563,0.0005 6.6023,0.0005 C10.2483,0.0005 13.2043,2.9565 13.2043,6.6025" id="Fill-1" fill="#C8F3E1"></path>
                <path d="M137.5448,6.6025 C137.5448,10.2485 134.5888,13.2045 130.9428,13.2045 C127.2968,13.2045 124.3408,10.2485 124.3408,6.6025 C124.3408,2.9565 127.2968,0.0005 130.9428,0.0005 C134.5888,0.0005 137.5448,2.9565 137.5448,6.6025" id="Fill-3" fill="#49D89D"></path>
                <polygon id="Fill-5" fill="#C8F3E1" points="0.0358 54.2016 70.0358 92.9616 70.0358 135.2956 0.0358 96.0496"></polygon>
                <polygon id="Fill-7" fill="#49D89D" points="29.6189 38.1539 102.0359 75.5749 102.0359 103.2959 115.0359 96.2959 115.0359 67.7729 44.2849 29.6269"></polygon>
                <path d="M54.6511,6.6025 C54.6511,10.2485 51.6951,13.2045 48.0491,13.2045 C44.4031,13.2045 41.4471,10.2485 41.4471,6.6025 C41.4471,2.9565 44.4031,0.0005 48.0491,0.0005 C51.6951,0.0005 54.6511,2.9565 54.6511,6.6025" id="Fill-9" fill="#C8F3E1"></path>
                <path d="M96.098,6.6025 C96.098,10.2485 93.142,13.2045 89.496,13.2045 C85.85,13.2045 82.894,10.2485 82.894,6.6025 C82.894,2.9565 85.85,0.0005 89.496,0.0005 C93.142,0.0005 96.098,2.9565 96.098,6.6025" id="Fill-11" fill="#C8F3E1"></path>
            </g>
            <g id="Page-1" transform="translate(5.000000, 1.000000)">
                <polyline id="Stroke-1" stroke="#271034" stroke-linecap="round" stroke-linejoin="round" points="131.7807 70.9358 70.0957 103.2348 8.4117 70.9358"></polyline>
                <polyline id="Stroke-2" stroke="#271034" stroke-linecap="round" stroke-linejoin="round" points="1.9301 67.6345 70.0961 31.9415 138.2621 67.6345"></polyline>
                <polyline id="Stroke-4" stroke="#271034" stroke-linecap="round" stroke-linejoin="round" points="113.5039 101.377 113.5039 97.682 113.5039 80.295 45.3379 44.602"></polyline>
                <polyline id="Stroke-5" stroke="#271034" stroke-linecap="round" stroke-linejoin="round" points="31.5833 52.5856 99.7493 88.2786 99.7493 105.6656"></polyline>
                <g id="Group-54" transform="translate(0.000000, 0.997000)">
                    <polyline id="Stroke-6" stroke="#271034" stroke-linecap="round" stroke-linejoin="round" points="70.0962 143.5 1.9302 107.807 1.9302 67.222"></polyline>
                    <polyline id="Stroke-8" stroke="#271034" stroke-linecap="round" stroke-linejoin="round" points="138.2621 67.2221 138.2621 107.8071 70.0961 143.5001"></polyline>
                    <path d="M13.7043,17.2094 C13.7043,20.8554 10.7483,23.8114 7.1023,23.8114 C3.4563,23.8114 0.5003,20.8554 0.5003,17.2094 C0.5003,13.5634 3.4563,10.6074 7.1023,10.6074 C10.7483,10.6074 13.7043,13.5634 13.7043,17.2094 Z" id="Stroke-10" stroke="#271034" stroke-linecap="round" stroke-linejoin="round"></path>
                    <path d="M138.0448,17.2094 C138.0448,20.8554 135.0888,23.8114 131.4428,23.8114 C127.7968,23.8114 124.8408,20.8554 124.8408,17.2094 C124.8408,13.5634 127.7968,10.6074 131.4428,10.6074 C135.0888,10.6074 138.0448,13.5634 138.0448,17.2094 Z" id="Stroke-12" stroke="#271034" stroke-linecap="round" stroke-linejoin="round"></path>
                    <path d="M14.3351,17.5033 L16.3351,17.5033" id="Stroke-14" stroke="#271034" stroke-linecap="round" stroke-linejoin="round"></path>
                    <path d="M19.3351,17.5033 L31.3351,17.5033" id="Stroke-16" stroke="#271034" stroke-linecap="round" stroke-linejoin="round" stroke-dasharray="3,3"></path>
                    <polyline id="Stroke-18" stroke="#271034" stroke-linecap="round" stroke-linejoin="round" points="32.3351 17.5033 34.6111 17.5033 35.0891 15.6003"></polyline>
                    <path d="M36.6503,11.2023 L38.7853,4.6053" id="Stroke-20" stroke="#271034" stroke-linecap="round" stroke-linejoin="round" stroke-dasharray="4.623,4.623"></path>
                    <polyline id="Stroke-22" stroke="#271034" stroke-linecap="round" stroke-linejoin="round" points="39.6082 2.4061 40.1132 0.5031 42.3352 0.5031"></polyline>
                    <path d="M46.3351,0.5033 L108.3351,0.5033" id="Stroke-24" stroke="#271034" stroke-linecap="round" stroke-linejoin="round" stroke-dasharray="4,4"></path>
                    <polyline id="Stroke-26" stroke="#271034" stroke-linecap="round" stroke-linejoin="round" points="110.3351 0.5033 112.2351 0.5033 112.9101 2.4033"></polyline>
                    <path d="M114.2904,6.7543 L116.4364,13.2813" id="Stroke-28" stroke="#271034" stroke-linecap="round" stroke-linejoin="round" stroke-dasharray="4.58,4.58"></path>
                    <path d="M117.1521,15.4564 L117.7771,17.3564" id="Stroke-30" stroke="#271034" stroke-linecap="round" stroke-linejoin="round"></path>
                    <polyline id="Stroke-32" stroke="#271034" stroke-linecap="round" stroke-linejoin="round" points="55.3351 17.5033 75.3241 17.5033 78.6251 6.5033 103.9341 6.5033 107.4181 17.5553"></polyline>
                    <path d="M96.3351,17.5033 L124.3351,17.5033" id="Stroke-34" stroke="#271034" stroke-linecap="round" stroke-linejoin="round"></path>
                    <path d="M39.3008,47.0694 L106.5328,83.1594" id="Stroke-36" stroke="#271034" stroke-linecap="round" stroke-linejoin="round"></path>
                    <polyline id="Stroke-38" stroke="#271034" stroke-linecap="round" stroke-linejoin="round" points="128.4167 15.5589 131.9927 18.8599 141.6207 9.2319"></polyline>
                    <path d="M19.792,94.1612 C19.792,94.7602 19.646,95.2222 19.352,95.5462 C19.059,95.8682 18.671,95.9982 18.188,95.9322 C18.74,96.4762 19.185,97.1382 19.525,97.9172 C19.864,98.6972 20.034,99.4582 20.034,100.2012 C20.034,100.6922 19.956,101.1112 19.802,101.4602 C19.646,101.8072 19.421,102.0622 19.127,102.2242 C18.834,102.3862 18.474,102.4402 18.048,102.3872 C17.623,102.3332 17.139,102.1502 16.599,101.8382 C15.539,101.2262 14.636,100.2332 13.888,98.8582 L14.803,98.1302 C14.849,98.2092 14.883,98.3152 14.907,98.4522 C14.929,98.5872 14.97,98.7112 15.028,98.8222 L15.269,99.2132 C15.361,99.3692 15.548,99.5932 15.83,99.8852 C16.112,100.1772 16.403,100.4092 16.702,100.5822 C17.013,100.7612 17.301,100.8632 17.565,100.8852 C17.831,100.9072 18.06,100.8602 18.256,100.7442 C18.452,100.6282 18.603,100.4482 18.713,100.2042 C18.823,99.9602 18.877,99.6682 18.877,99.3282 C18.877,98.6222 18.644,97.9292 18.178,97.2472 C17.713,96.5682 17.099,96.0072 16.34,95.5692 C16.247,95.5162 16.159,95.4682 16.072,95.4242 C15.986,95.3812 15.896,95.3402 15.805,95.3002 L15.805,94.1432 C16.334,94.4492 16.777,94.6422 17.134,94.7222 C17.491,94.8012 17.781,94.7992 18.006,94.7172 C18.23,94.6332 18.391,94.4772 18.49,94.2482 C18.587,94.0182 18.636,93.7382 18.636,93.4062 C18.636,93.1672 18.589,92.9102 18.498,92.6382 C18.405,92.3652 18.279,92.1002 18.117,91.8402 C17.957,91.5822 17.76,91.3332 17.531,91.0932 C17.301,90.8542 17.048,90.6552 16.771,90.4952 C16.035,90.0702 15.418,90.0332 14.924,90.3852 L14.251,89.1402 C14.953,88.6552 15.81,88.7042 16.823,89.2892 C17.238,89.5282 17.626,89.8362 17.988,90.2112 C18.351,90.5872 18.664,90.9982 18.929,91.4442 C19.193,91.8902 19.404,92.3482 19.559,92.8172 C19.715,93.2872 19.792,93.7342 19.792,94.1612" id="Fill-40" fill="#000000"></path>
                    <path d="M26.1635,105.4071 C26.3705,105.7661 26.4745,106.0981 26.4745,106.4041 C26.4745,106.7101 26.3725,106.9171 26.1715,107.0271 C25.9695,107.1361 25.7255,107.1071 25.4385,106.9421 C25.1505,106.7751 24.9085,106.5261 24.7125,106.1941 C24.5165,105.8611 24.4195,105.5371 24.4195,105.2181 C24.4195,104.8981 24.5225,104.6861 24.7305,104.5801 C24.9365,104.4731 25.1735,104.4961 25.4385,104.6491 C25.7025,104.8021 25.9445,105.0541 26.1635,105.4071" id="Fill-42" fill="#000000"></path>
                    <path d="M36.3833,104.6973 L32.5853,108.0643 C32.8613,108.8193 33.1523,109.4173 33.4563,109.8583 C33.7613,110.2993 34.0633,110.6053 34.3633,110.7783 C34.6753,110.9583 34.9643,111.0173 35.2353,110.9543 C35.5053,110.8923 35.7413,110.7143 35.9433,110.4203 C36.1443,110.1263 36.3063,109.7203 36.4273,109.2003 C36.5473,108.6813 36.6083,108.0503 36.6083,107.3093 C36.6083,106.8463 36.5913,106.4003 36.5563,105.9693 C36.5213,105.5383 36.4633,105.1143 36.3833,104.6973 Z M35.9873,103.1383 C35.7563,102.4753 35.4913,101.9223 35.1923,101.4783 C34.8923,101.0333 34.5873,100.7223 34.2773,100.5423 C33.9893,100.3763 33.7043,100.3313 33.4233,100.4073 C33.1403,100.4823 32.8903,100.6683 32.6713,100.9663 C32.4533,101.2633 32.2783,101.6793 32.1443,102.2103 C32.0123,102.7433 31.9463,103.3733 31.9463,104.1013 C31.9463,104.9223 32.0263,105.7493 32.1883,106.5843 L35.9873,103.1383 Z M36.6253,102.3373 C36.9593,103.0483 37.2263,103.8793 37.4283,104.8333 C37.6293,105.7873 37.7303,106.7823 37.7303,107.8193 C37.7303,108.8693 37.6293,109.7243 37.4283,110.3863 C37.2263,111.0463 36.9623,111.5423 36.6333,111.8703 C36.3063,112.1993 35.9353,112.3713 35.5203,112.3833 C35.1063,112.3963 34.6863,112.2803 34.2603,112.0353 C33.8223,111.7823 33.3963,111.3833 32.9823,110.8383 C32.5673,110.2933 32.1993,109.6523 31.8773,108.9153 C31.5563,108.1783 31.2983,107.3653 31.1093,106.4773 C30.9193,105.5913 30.8243,104.6753 30.8243,103.7323 C30.8243,102.7883 30.9193,101.9803 31.1093,101.3053 C31.2983,100.6303 31.5563,100.1043 31.8773,99.7253 C32.1993,99.3463 32.5673,99.1203 32.9823,99.0473 C33.3963,98.9743 33.8223,99.0643 34.2603,99.3173 C35.1583,99.8353 35.9463,100.8423 36.6253,102.3373 Z" id="Fill-44" fill="#000000"></path>
                    <path d="M43.4278,115.3746 C43.6348,115.7336 43.7388,116.0656 43.7388,116.3716 C43.7388,116.6776 43.6368,116.8846 43.4358,116.9946 C43.2338,117.1036 42.9898,117.0746 42.7028,116.9096 C42.4148,116.7426 42.1728,116.4936 41.9768,116.1616 C41.7808,115.8286 41.6838,115.5046 41.6838,115.1856 C41.6838,114.8656 41.7868,114.6536 41.9948,114.5476 C42.2008,114.4406 42.4378,114.4636 42.7028,114.6166 C42.9668,114.7696 43.2088,115.0216 43.4278,115.3746" id="Fill-46" fill="#000000"></path>
                    <polygon id="Fill-48" fill="#000000" points="52.3873 109.8425 52.3873 122.2815 51.1963 121.5935 51.1963 110.8885 49.0213 110.3705 48.7443 109.4335 51.5583 109.3635"></polygon>
                    <path d="M55.1511,17.2094 C55.1511,20.8554 52.1951,23.8114 48.5491,23.8114 C44.9031,23.8114 41.9471,20.8554 41.9471,17.2094 C41.9471,13.5634 44.9031,10.6074 48.5491,10.6074 C52.1951,10.6074 55.1511,13.5634 55.1511,17.2094 Z" id="Stroke-50" stroke="#271034" stroke-linecap="round" stroke-linejoin="round"></path>
                    <path d="M96.598,17.2094 C96.598,20.8554 93.642,23.8114 89.996,23.8114 C86.35,23.8114 83.394,20.8554 83.394,17.2094 C83.394,13.5634 86.35,10.6074 89.996,10.6074 C93.642,10.6074 96.598,13.5634 96.598,17.2094 Z" id="Stroke-52" stroke="#271034" stroke-linecap="round" stroke-linejoin="round"></path>
                </g>
            </g>
        </g>
    </g>
</svg>