<?xml version="1.0" encoding="UTF-8"?>
<svg width="150px" height="150px" viewBox="0 0 150 150" version="1.1" xmlns="http://www.w3.org/2000/svg" xmlns:xlink="http://www.w3.org/1999/xlink">
    <!-- Generator: Sketch 48.1 (47250) - http://www.bohemiancoding.com/sketch -->
    <title>illo-spot-speedometer</title>
    <desc>Created with Sketch.</desc>
    <defs>
        <polygon id="path-1" points="0 0.907 144.396792 0.907 144.396792 108.7377 0 108.7377"></polygon>
    </defs>
    <g id="Page-1" stroke="none" stroke-width="1" fill="none" fill-rule="evenodd">
        <g id="illo-spot-speedometer">
            <g id="Page-1" transform="translate(3.000000, 11.000000)">
                <path d="M96.4902,119.093 L49.9012,119.093 C48.0672,119.093 46.5672,117.593 46.5672,115.76 L46.5672,114.296 C46.5672,112.462 48.0672,110.962 49.9012,110.962 L96.4902,110.962 C98.3232,110.962 99.8232,112.462 99.8232,114.296 L99.8232,115.76 C99.8232,117.593 98.3232,119.093 96.4902,119.093" id="Fill-1" fill="#C8F3E1"></path>
                <g id="Group-5" transform="translate(0.000000, 0.093000)">
                    <mask id="mask-2" fill="white">
                        <use xlink:href="#path-1"></use>
                    </mask>
                    <g id="Clip-4"></g>
                    <path d="M20.0817,108.7377 L3.0687,92.5757 C-1.0693,83.4827 0.1757,83.6527 0.1757,73.0117 C0.1757,33.1897 32.4587,0.9067 72.2807,0.9067 C112.1037,0.9067 144.3857,33.1897 144.3857,73.0117 C144.3857,83.9107 144.8057,86.5657 140.4767,95.8277 L124.5467,108.6257 C129.8577,99.6137 132.9037,89.1077 132.9037,77.8907 C132.9037,44.4097 105.7617,17.2677 72.2807,17.2677 C38.7997,17.2677 11.6577,44.4097 11.6577,77.8907 C11.6577,89.1547 14.7297,99.7007 20.0817,108.7377" id="Fill-3" fill="#C8F3E1" mask="url(#mask-2)"></path>
                </g>
                <path d="M115.7871,104.3676 L109.8561,100.6486 C114.2671,93.6146 116.5981,85.4856 116.5981,77.1396 C116.5981,72.3386 115.8361,67.6186 114.3321,63.1106 L120.9731,60.8956 C122.7151,66.1186 123.5981,71.5846 123.5981,77.1396 C123.5981,86.8036 120.8971,96.2186 115.7871,104.3676" id="Fill-6" fill="#49D89D"></path>
                <path d="M25.04,97.2152 C22.335,90.8582 20.964,84.1042 20.964,77.1402 C20.964,48.8432 43.984,25.8222 72.281,25.8222 C94.41,25.8222 113.978,39.9172 120.973,60.8962 L114.332,63.1112 C108.291,44.9942 91.392,32.8222 72.281,32.8222 C47.844,32.8222 27.964,52.7032 27.964,77.1402 C27.964,83.1562 29.147,88.9882 31.481,94.4752 L25.04,97.2152 Z" id="Fill-8" fill="#C8F3E1"></path>
                <path d="M80.7161,88.4693 C79.2351,91.2773 76.2861,93.1913 72.8911,93.1913 C68.0071,93.1913 64.0491,89.2323 64.0491,84.3493 C64.0491,79.4653 68.0071,75.5073 72.8911,75.5073 C77.7741,75.5073 81.7331,79.4653 81.7331,84.3493" id="Fill-10" fill="#49D89D"></path>
                <path d="M74.8943,82.3356 L122.2863,90.1806 C123.2833,90.3446 123.9583,91.2856 123.7943,92.2826 C123.6293,93.2796 122.6883,93.9546 121.6913,93.7906 L74.4873,86.1976" id="Fill-12" fill="#49D89D"></path>
                <polygon id="Fill-14" fill="#49D89D" points="114.4062 107.6313 107.7132 103.6453 108.2242 102.7853 114.9182 106.7723"></polygon>
                <polygon id="Fill-16" fill="#49D89D" points="111.9379 110.3568 105.0199 105.5678 105.5889 104.7458 112.5069 109.5348"></polygon>
                <polygon id="Fill-18" fill="#49D89D" points="105.02 105.5678 104.451 105.1738 105.02 104.3518 105.589 104.7458"></polygon>
                <polygon id="Fill-20" fill="#49D89D" points="71.097 43.0987 76.854 52.9297 90.305 44.0167 76.779 63.8857 71.349 55.1227 57.036 64.8207"></polygon>
            </g>
            <g id="Page-1" transform="translate(3.000000, 11.000000)" stroke="#271034" stroke-linecap="round" stroke-linejoin="round">
                <path d="M40.1589,128.702 C23.2219,117.95 11.9819,99.03 11.9819,77.484 C11.9819,44.002 39.1239,16.86 72.6049,16.86 C106.0859,16.86 133.2279,44.002 133.2279,77.484 C133.2279,98.409 122.6259,116.859 106.4999,127.753" id="Stroke-1"></path>
                <path d="M6.9431,102.4411 C2.8051,93.3491 0.5001,83.2461 0.5001,72.6051 C0.5001,32.7821 32.7821,0.5001 72.6051,0.5001 C112.4281,0.5001 144.7101,32.7821 144.7101,72.6051 C144.7101,83.5031 142.2921,93.8361 137.9641,103.0981" id="Stroke-3"></path>
                <path d="M96.8144,116.1538 L50.2254,116.1538 C48.3914,116.1538 46.8914,114.6538 46.8914,112.8208 L46.8914,111.3568 C46.8914,109.5228 48.3914,108.0228 50.2254,108.0228 L96.8144,108.0228 C98.6474,108.0228 100.1474,109.5228 100.1474,111.3568 L100.1474,112.8208 C100.1474,114.6538 98.6474,116.1538 96.8144,116.1538 Z" id="Stroke-5"></path>
                <path d="M71.3403,25.432 L71.3403,31.432" id="Stroke-7"></path>
                <path d="M20.8738,65.7436 L29.0048,68.9956" id="Stroke-9"></path>
                <path d="M36.7286,37.6928 L42.9206,45.0108" id="Stroke-11"></path>
                <path d="M27.7848,102.3316 L36.8298,98.1826" id="Stroke-13"></path>
                <path d="M102.0866,45.417 L107.4656,38.912" id="Stroke-15"></path>
                <path d="M81.0403,85.8204 C79.5593,88.6284 76.6103,90.5424 73.2153,90.5424 C68.3313,90.5424 64.3733,86.5834 64.3733,81.7004 C64.3733,76.8164 68.3313,72.8584 73.2153,72.8584 C78.0983,72.8584 82.0573,76.8164 82.0573,81.7004" id="Stroke-17"></path>
                <path d="M75.7558,80.5821 L123.1478,88.4271 C124.1448,88.5911 124.8198,89.5321 124.6558,90.5291 C124.4908,91.5261 123.5498,92.2011 122.5528,92.0371 L75.3488,84.4441" id="Stroke-19"></path>
            </g>
        </g>
    </g>
</svg>